<?xml version="1.0" encoding="utf-8"?>
<!-- Generator: Adobe Illustrator 16.0.0, SVG Export Plug-In . SVG Version: 6.00 Build 0)  -->
<!DOCTYPE svg PUBLIC "-//W3C//DTD SVG 1.1//EN" "http://www.w3.org/Graphics/SVG/1.1/DTD/svg11.dtd">
<svg version="1.1" id="Layer_1" xmlns="http://www.w3.org/2000/svg" xmlns:xlink="http://www.w3.org/1999/xlink" x="0px" y="0px"
	 width="156px" height="48px" viewBox="0 0 156 48" enable-background="new 0 0 156 48" xml:space="preserve">
<g>
	<path fill="#FFFFFF" d="M154.546,12.159l-0.351,1.285l-0.368-1.285h-0.574v1.76h0.364v-1.346l0.388,1.346h0.343l0.396-1.346v1.346
		h0.376v-1.76H154.546z M151.549,12.159v0.288h0.48v1.472h0.383v-1.472h0.475v-0.288H151.549L151.549,12.159z M124.982,25.59
		c-0.357,0.573-0.854,1.047-1.444,1.376c-0.603,0.341-1.353,0.515-2.229,0.515s-1.623-0.174-2.215-0.517
		c-0.581-0.333-1.07-0.806-1.424-1.375c-0.361-0.589-0.613-1.236-0.747-1.914c-0.286-1.427-0.286-2.896,0-4.324
		c0.13-0.68,0.383-1.33,0.748-1.918c0.36-0.562,0.847-1.032,1.42-1.372c0.595-0.355,1.339-0.534,2.218-0.534
		c0.877,0,1.627,0.18,2.231,0.533c0.601,0.354,1.086,0.815,1.44,1.373c0.352,0.555,0.603,1.2,0.748,1.918
		c0.287,1.427,0.287,2.897,0,4.324C125.595,24.352,125.342,25,124.982,25.59L124.982,25.59z M125.137,12.828
		c-1.136-0.444-2.425-0.67-3.83-0.67c-1.402,0-2.685,0.225-3.81,0.67c-1.086,0.419-2.073,1.06-2.897,1.881
		c-0.803,0.805-1.429,1.796-1.863,2.942c-0.438,1.152-0.658,2.454-0.658,3.87c0,1.417,0.221,2.712,0.658,3.852
		c0.435,1.136,1.061,2.12,1.863,2.926c0.822,0.819,1.81,1.454,2.896,1.862c1.125,0.432,2.408,0.651,3.813,0.651
		c1.403,0,2.692-0.22,3.83-0.651c1.133-0.431,2.112-1.056,2.913-1.862c0.8-0.806,1.429-1.79,1.863-2.926
		c0.437-1.14,0.659-2.437,0.659-3.852c0-1.414-0.223-2.716-0.659-3.87c-0.435-1.145-1.062-2.136-1.863-2.942
		C127.251,13.904,126.271,13.271,125.137,12.828z M148.12,14.131c-0.472-0.611-1.129-1.098-1.953-1.445
		c-0.83-0.35-1.916-0.527-3.224-0.527c-1.023,0-2.041,0.235-3.023,0.698c-0.972,0.46-2.004,1.206-2.617,2.219l-0.055,0.091
		c-0.03,0.046-0.064,0.069-0.109,0.069c-0.046,0-0.066-0.023-0.066-0.069v-2.519h-4.383v17.709h4.629v-9.292
		c0-1.875,0.32-3.25,0.955-4.082c0.647-0.85,1.697-1.282,3.117-1.282c1.264,0,2.16,0.4,2.666,1.189
		c0.487,0.762,0.735,1.92,0.735,3.44v10.028h4.629V19.422c0-1.099-0.099-2.116-0.296-3.021
		C148.932,15.511,148.593,14.747,148.12,14.131 M62.382,23.014L51.499,5.805h-4.995v24.601h4.594v-17.29l0.367,0.57l10.48,16.72
		h5.032V5.805h-4.595V23.014 M81.995,25.59c-0.358,0.572-0.854,1.046-1.443,1.376c-0.604,0.341-1.354,0.515-2.23,0.515
		c-0.878,0-1.623-0.174-2.214-0.517c-0.582-0.333-1.071-0.806-1.425-1.375c-0.361-0.589-0.614-1.236-0.747-1.914
		c-0.286-1.427-0.286-2.896,0-4.324c0.129-0.68,0.382-1.331,0.748-1.918c0.36-0.563,0.846-1.032,1.421-1.372
		c0.593-0.355,1.339-0.534,2.216-0.534c0.877,0,1.628,0.18,2.232,0.533c0.6,0.353,1.086,0.815,1.44,1.373
		c0.353,0.555,0.604,1.2,0.749,1.918c0.286,1.427,0.286,2.897,0,4.324C82.608,24.352,82.355,25,81.995,25.59L81.995,25.59z
		 M82.15,12.828c-1.137-0.444-2.426-0.67-3.83-0.67s-2.686,0.225-3.81,0.67c-1.086,0.419-2.073,1.06-2.898,1.881
		c-0.802,0.805-1.43,1.796-1.863,2.942c-0.438,1.152-0.659,2.454-0.659,3.87c0,1.417,0.221,2.712,0.658,3.852
		c0.435,1.136,1.062,2.12,1.864,2.926c0.822,0.819,1.81,1.454,2.896,1.862c1.125,0.432,2.408,0.651,3.812,0.651
		s2.693-0.22,3.83-0.651c1.133-0.431,2.113-1.056,2.916-1.862c0.818-0.834,1.453-1.831,1.861-2.926
		c0.438-1.14,0.659-2.436,0.659-3.852c0-1.415-0.221-2.717-0.66-3.87c-0.433-1.145-1.06-2.136-1.86-2.942
		C84.264,13.903,83.282,13.271,82.15,12.828z M107.395,7.332l-4.629-0.045l-0.051,5.132h-1.203c0,0-2.203-0.085-4.117,0.62
		c-1.174,0.431-2.158,1.187-2.787,2.331c-0.127,0.232-0.238,0.473-0.33,0.721c-0.016,0.056-0.051,0.083-0.108,0.083
		c-0.056,0-0.084-0.027-0.084-0.083v-3.357h-4.383v17.709h4.63V22.48c0-0.828,0.084-1.607,0.252-2.316
		c0.105-0.457,0.27-0.877,0.471-1.265c0.836-1.34,2.649-2.677,6.557-2.715h1.066l-0.1,10.33c-0.01,0.875,0.132,1.588,0.416,2.119
		c0.267,0.512,0.672,0.938,1.17,1.23c0.501,0.295,1.093,0.498,1.761,0.605c0.681,0.11,1.411,0.17,2.175,0.176
		c0.477,0.006,0.985-0.002,1.51-0.021c0.411-0.013,0.822-0.046,1.229-0.101l0.034-3.463c-0.178,0.027-0.355,0.048-0.534,0.063
		c-0.276,0.021-0.553,0.03-0.83,0.027c-0.907-0.008-1.503-0.168-1.823-0.492c-0.319-0.322-0.471-0.916-0.461-1.816l0.084-8.658
		h3.564v-3.765h-3.527L107.395,7.332"/>
</g>
<path fill="#FDBB30" d="M20.743,12.99c-3.664-0.01-7.181,1.442-9.77,4.035c-2.598,2.577-4.056,6.086-4.048,9.745
	c0,3.682,1.44,7.144,4.05,9.75c2.61,2.601,6.08,4.035,9.768,4.035c3.689,0,7.16-1.435,9.772-4.039
	c2.597-2.577,4.053-6.087,4.045-9.746c0-3.679-1.438-7.14-4.045-9.746C27.924,14.432,24.408,12.98,20.743,12.99L20.743,12.99z
	 M20.743,46.934c-11.141,0-20.208-9.047-20.21-20.164C0.535,15.656,9.602,6.611,20.743,6.61c11.141,0.001,20.209,9.046,20.209,20.16
	C40.952,37.887,31.884,46.932,20.743,46.934z M42.757,5.077v-1.57h1.577v1.57H42.757z M42.757,1.949V0.373h1.577V1.95L42.757,1.949
	L42.757,1.949z M38.324,6.6V5.066h1.473v1.535L38.324,6.6L38.324,6.6z"/>
<path fill="#FFFFFF" d="M35.406,9.549V8.082h1.485v1.467H35.406z M39.797,8.081V6.6h1.65v1.48L39.797,8.081L39.797,8.081z
	 M33.931,8.081V6.674h1.477v1.407H33.931L33.931,8.081z M38.324,9.549V8.082h1.473v1.467H38.324z M41.2,3.507V1.949h1.558v1.558
	H41.2z M38.325,5.067v-1.56H41.2v1.56H38.325z M36.891,8.08V5.066h1.432v3.015L36.891,8.08L36.891,8.08z M36.891,9.548h1.433v3.115
	h-1.27V13.9h-1.317v1.794h-1.175l0.005,1.488h-1.462V15.68h-1.496v1.502h1.496v1.65h-1.479v1.715h-1.238v1.478h-1.177v1.642
	c-2.203,3.164-4.064,7.019-5.347,10.45c-0.606,1.619-3.612,1.374-4.283-0.221C18.314,30.873,17,27.085,12.83,22.51
	c-1.817-1.87-0.5-3.058,0.596-2.729c2.026,0.66,4.6,2.486,7.913,7.088c0.921-2.29,3.962-7.9,5.177-9.702h1.08v-1.473h0.983v-1.467
	h1.482V11.93h1.566v1.465H33.1V11.93h-1.474v-1.315h1.32V9.549h2.46v1.479h1.485V9.548z M64.431,44.426h5.343v2.022h-7.958V35.477
	h2.615V44.426z M70.898,46.448h2.423v-8.62h-2.423V46.448z M70.898,36.633h2.423v-2.066h-2.423V36.633z M75.888,46.448v-6.74h-1.332
	v-1.88h1.332V37.42c0-1.082,0.144-1.646,0.513-2.006c0.37-0.359,0.787-0.534,1.733-0.534h2.022v1.82h-1.186
	c-0.322,0-0.418,0.03-0.515,0.11c-0.08,0.094-0.112,0.266-0.112,0.689v0.344h1.813v1.865H78.36v6.74L75.888,46.448L75.888,46.448z
	 M83.205,41.339h3.257c0-1.159-0.08-1.474-0.192-1.599c-0.097-0.094-0.24-0.141-0.737-0.141H84.2c-0.417,0-0.675,0.029-0.786,0.155
	C83.301,39.865,83.221,40.132,83.205,41.339z M83.205,42.809c0.016,1.364,0.111,1.603,0.209,1.711
	c0.111,0.125,0.369,0.157,0.786,0.157h1.491c0.498,0,0.627-0.047,0.723-0.157c0.08-0.094,0.113-0.166,0.128-0.777h2.263
	c-0.016,1.285-0.16,1.781-0.594,2.205c-0.273,0.266-0.625,0.501-1.572,0.501h-3.273c-0.898,0-1.363-0.14-1.748-0.533
	c-0.578-0.563-0.803-1.238-0.803-3.776c0-2.541,0.225-3.215,0.803-3.794c0.369-0.376,0.85-0.518,1.748-0.518h2.984
	c0.899,0,1.381,0.142,1.75,0.518c0.577,0.564,0.705,1.238,0.705,3.714v0.406c0,0.25-0.063,0.344-0.353,0.344H83.205z M91.49,45.382
	h5.712v1.066h-6.979V35.477h1.268V45.382z M99.537,45.18c0.193,0.172,0.434,0.234,1.043,0.234h1.99c0.609,0,0.85-0.063,1.027-0.234
	c0.256-0.252,0.4-0.66,0.4-2.932c0-2.258-0.145-2.665-0.4-2.916c-0.177-0.188-0.418-0.234-1.027-0.234h-1.99
	c-0.609,0-0.85,0.047-1.043,0.234c-0.256,0.25-0.385,0.658-0.385,2.916c0,2.271,0.129,2.68,0.385,2.93 M98.703,45.979
	c-0.546-0.533-0.738-1.207-0.738-3.73c0-2.508,0.192-3.182,0.738-3.716c0.37-0.36,0.867-0.47,1.749-0.47h2.246
	c0.866,0,1.38,0.109,1.733,0.47c0.562,0.534,0.754,1.208,0.754,3.716c0,2.523-0.192,3.197-0.754,3.73
	c-0.354,0.359-0.867,0.47-1.733,0.47h-2.246C99.57,46.448,99.072,46.338,98.703,45.979 M113.297,43.611
	c-0.048,1.52-0.209,2.006-0.626,2.414c-0.304,0.298-0.706,0.423-1.524,0.423h-2.262c-0.883,0-1.38-0.11-1.75-0.47
	c-0.545-0.533-0.738-1.207-0.738-3.73c0-2.508,0.193-3.182,0.74-3.715c0.367-0.36,0.865-0.471,1.748-0.471h2.246
	c0.85,0,1.221,0.11,1.54,0.424c0.401,0.392,0.562,0.924,0.595,2.32h-1.156c-0.047-1.066-0.145-1.317-0.32-1.49
	c-0.178-0.172-0.37-0.221-0.898-0.221h-1.877c-0.611,0-0.851,0.049-1.043,0.236c-0.258,0.25-0.386,0.658-0.386,2.916
	c0,2.271,0.128,2.68,0.386,2.93c0.192,0.174,0.432,0.236,1.043,0.236h1.877c0.529,0,0.737-0.047,0.93-0.221
	c0.193-0.188,0.289-0.517,0.322-1.582H113.297z M114.621,46.448V35.163h1.188v6.567h0.883l3.16-3.668h1.428l-3.657,4.09l3.786,4.296
	h-1.492l-3.257-3.746h-0.851v3.746H114.621z"/>
<path fill="#D0202E" d="M58.442,35.547c-0.937-0.873-2.93-1.058-5.479-1.058c-2.549,0-4.542,0.185-5.479,1.058
	c-0.938,0.873-1.084,2.221-1.084,5.314c0,3.096,0.146,4.445,1.084,5.318c0.937,0.871,2.93,1.057,5.479,1.057
	c2.55,0,4.542-0.186,5.48-1.057c0.938-0.873,1.084-2.223,1.084-5.318C59.527,37.768,59.381,36.42,58.442,35.547"/>
<path fill="#FFFFFF" d="M54.57,37.609h-0.68c0-0.5-0.416-0.905-0.927-0.905c-0.505-0.005-0.919,0.399-0.926,0.905h-0.68
	c0-0.866,0.72-1.57,1.606-1.57C53.85,36.039,54.57,36.743,54.57,37.609 M53.23,40.23v0.912h-0.533V40.23
	c-0.198-0.096-0.324-0.297-0.326-0.517c0-0.319,0.265-0.579,0.593-0.579c0.326,0,0.592,0.26,0.592,0.58
	C53.555,39.935,53.428,40.135,53.23,40.23z M50.685,38.158v3.998h0.756v3.324h1.139v-2.424h0.767v2.424h1.14v-3.324h0.755v-3.998
	H50.685z M124.166,37.689l-0.279,1.037l-0.294-1.037h-0.456v1.422h0.289v-1.088l0.309,1.088h0.273l0.315-1.088v1.088h0.3v-1.422
	H124.166L124.166,37.689z M121.777,37.689v0.232h0.383v1.189h0.305v-1.189h0.378v-0.232H121.777z"/>
<path fill="none" d="M0,0h156v48H0V0z"/>
</svg>
