<?xml version="1.0" encoding="UTF-8"?>
<svg width="30px" height="30px" viewBox="0 0 30 30" version="1.1" xmlns="http://www.w3.org/2000/svg" xmlns:xlink="http://www.w3.org/1999/xlink">
    <!-- Generator: Sketch 51.1 (57501) - http://www.bohemiancoding.com/sketch -->
    <title>user-signed-in-md</title>
    <desc>Created with Sketch.</desc>
    <defs>
        <rect id="path-1" x="0" y="0" width="40" height="40"></rect>
    </defs>
    <g id="UI-Elements" stroke="none" stroke-width="1" fill="none" fill-rule="evenodd">
        <g id="account_icon" transform="translate(-142.000000, -70.000000)">
            <g id="Icons-/-UI-/-Medium-/-Avatar" transform="translate(137.000000, 65.000000)">
                <mask id="mask-2" fill="white">
                    <use xlink:href="#path-1"></use>
                </mask>
                <g id="mask"></g>
                <circle id="Oval-2" stroke="#FFFFFF" stroke-width="1" fill="#FFFFFF" fill-rule="evenodd" mask="url(#mask-2)" cx="20" cy="20" r="14.5"></circle>
                <path d="M19.8139648,5 C11.6320981,5 5,11.4994081 5,19.5175781 C5,23.747777 6.85744328,27.5435654 9.80314322,30.1969319 C10.0014224,29.1594835 9.92507354,28.3141137 10.2635157,27.6496553 C11.4429352,25.4239989 15.1281938,26.0851071 16.9263812,24.5909133 C17.1258,24.4368036 17.3081257,24.2458416 17.4551258,24.0370119 L17.4551258,22.1687112 C17.2420326,22.1151079 17.0836372,22.0134848 16.9263812,21.8716593 C16.5138693,21.4372486 16.1788458,20.651066 15.6934035,20.0792967 C15.3048219,19.5912828 14.8068447,19.4494572 14.6370539,18.936875 C14.5390538,18.6509904 14.4911933,18.3126191 14.5037282,17.9909989 C14.5151236,17.4370975 14.7282168,16.8898965 15.2193567,16.6341638 C15.2193567,16.0143748 15.2079613,15.4314383 15.213659,14.8786535 C15.213659,13.9260771 15.2865893,13.0985751 15.6090779,12.4799029 C15.8267292,12.0209241 16.1970784,11.6825529 16.7679858,11.4915909 C16.8169858,11.4737231 16.8842184,11.4681394 16.9263812,11.4502716 C17.9291727,11.1822548 17.2488699,11.1822548 19.3854994,10.6350538 L20.2424303,10.6350538 C22.3790598,11.1822548 21.698757,11.1822548 22.7015485,11.4502716 C22.7437113,11.4681394 22.8109439,11.4737231 22.8599439,11.4915909 C23.4308513,11.6825529 23.8012005,12.0209241 24.0199913,12.4799029 C24.3413404,13.0985751 24.4142707,13.9260771 24.4142707,14.8786535 C24.4199684,15.4314383 24.408573,16.0143748 24.408573,16.6341638 C24.8997129,16.8898965 25.1128061,17.4370975 25.125341,17.9909989 C25.1378759,18.3126191 25.0888759,18.6509904 24.9908758,18.936875 C24.821085,19.4494572 24.3231078,19.5912828 23.9345261,20.0792967 C23.4490839,20.651066 23.1140604,21.4372486 22.7015485,21.8716593 C22.5442925,22.0134848 22.385897,22.1151079 22.1728039,22.1687112 L22.1728039,24.0370119 C22.319804,24.2458416 22.5021297,24.4368036 22.7015485,24.5909133 C24.4997359,26.0851071 28.1849945,25.4239989 29.364414,27.6496553 C29.7028561,28.3141137 29.6265072,29.1594835 29.8247865,30.1969319 C32.7704864,27.5435654 34.6279297,23.747777 34.6279297,19.5175781 C34.6279297,11.4994081 27.9958316,5 19.8139648,5" id="Fill-1" fill="#242E39" fill-rule="evenodd" mask="url(#mask-2)"></path>
                <circle id="Oval-2" stroke="#FFFFFF" stroke-width="1" mask="url(#mask-2)" cx="20" cy="20" r="14.5"></circle>
            </g>
        </g>
    </g>
</svg>